<svg width="14" height="14" viewBox="0 0 14 14" fill="none" xmlns="http://www.w3.org/2000/svg">
<path d="M13.6668 7.45206C13.6668 7.7282 13.443 7.95206 13.1668 7.95206H8.45254C8.1764 7.95206 7.95254 8.17591 7.95254 8.45206V13.1663C7.95254 13.4425 7.72869 13.6663 7.45254 13.6663H6.54778C6.27164 13.6663 6.04778 13.4425 6.04778 13.1663V8.45206C6.04778 8.17591 5.82392 7.95206 5.54778 7.95206H0.833497C0.557354 7.95206 0.333496 7.7282 0.333496 7.45206V6.54729C0.333496 6.27115 0.557354 6.04729 0.833496 6.04729H5.54778C5.82392 6.04729 6.04778 5.82344 6.04778 5.54729V0.833008C6.04778 0.556866 6.27164 0.333008 6.54778 0.333008H7.45254C7.72869 0.333008 7.95254 0.556865 7.95254 0.833008V5.54729C7.95254 5.82344 8.1764 6.04729 8.45254 6.04729H13.1668C13.443 6.04729 13.6668 6.27115 13.6668 6.54729V7.45206Z" fill="white"/>
</svg>
