<svg width="32" height="32" viewBox="0 0 32 32" fill="none" xmlns="http://www.w3.org/2000/svg">
<g id="Filled/Basic/Eye-Hide">
<path id="Subtract" fill-rule="evenodd" clip-rule="evenodd" d="M15.994 5.61743C22.8714 5.61743 26.79 10.3246 28.5127 13.1302C29.0452 13.9916 29.3273 14.9842 29.3273 15.9969C29.3273 17.0096 29.0452 18.0023 28.5127 18.8636C26.79 21.6693 22.8714 26.3764 15.994 26.3764C9.11653 26.3764 5.19798 21.6693 3.47528 18.8636C2.94273 18.0023 2.66064 17.0096 2.66064 15.9969C2.66064 14.9842 2.94273 13.9916 3.47528 13.1302C5.19798 10.3246 9.11653 5.61743 15.994 5.61743ZM16 21.3333C18.9455 21.3333 21.3333 18.9455 21.3333 16C21.3333 13.0545 18.9455 10.6667 16 10.6667C13.0545 10.6667 10.6667 13.0545 10.6667 16C10.6667 18.9455 13.0545 21.3333 16 21.3333Z" fill="#757575"/>
<rect id="Rectangle 15" x="2.6665" y="26.6667" width="33.3333" height="2.66667" rx="1.33333" transform="rotate(-45 2.6665 26.6667)" fill="#757575"/>
</g>
</svg>
