<svg width="32" height="32" viewBox="0 0 32 32" fill="none" xmlns="http://www.w3.org/2000/svg">
<g id="Filled/Basic/Eye-Open">
<path id="Subtract" fill-rule="evenodd" clip-rule="evenodd" d="M15.994 5.61743C22.8714 5.61743 26.79 10.3246 28.5127 13.1302C29.0452 13.9916 29.3273 14.9842 29.3273 15.9969C29.3273 17.0096 29.0452 18.0023 28.5127 18.8636C26.79 21.6693 22.8714 26.3764 15.994 26.3764C9.11653 26.3764 5.19798 21.6693 3.47528 18.8636C2.94273 18.0023 2.66064 17.0096 2.66064 15.9969C2.66064 14.9842 2.94273 13.9916 3.47528 13.1302C5.19798 10.3246 9.11653 5.61743 15.994 5.61743ZM15.9998 21.3333C18.9454 21.3333 21.3332 18.9454 21.3332 15.9999C21.3332 13.0544 18.9454 10.6666 15.9998 10.6666C13.0543 10.6666 10.6665 13.0544 10.6665 15.9999C10.6665 18.9454 13.0543 21.3333 15.9998 21.3333Z" fill="#757575"/>
</g>
</svg>
